<svg width="234" height="64" viewBox="0 0 234 64" fill="none" xmlns="http://www.w3.org/2000/svg">
<g clip-path="url(#clip0_257_654)">
<path d="M15.3415 2.80143C11.0927 0.761409 6.55622 0.0208265 1.88818 0.00432443C1.27729 0.00190949 0.664411 -0.00795153 0.0541173 0.0147892C-0.152229 0.0222353 0.308771 0.0282726 0.204405 0.0262602C0.501401 0.0312913 0.798397 0.0320963 1.09539 0.0331025C0.5509 0.0312913 1.24429 0.0469884 1.31009 0.0496046C1.51783 0.0578557 1.72557 0.0705341 1.9331 0.0832126C2.39649 0.111387 2.85848 0.15707 3.31988 0.208186C4.19835 0.305991 5.07105 0.453906 5.93659 0.63221C7.57225 0.969496 9.17333 1.46738 10.7259 2.085C13.7734 3.2973 16.5931 5.06524 19.069 7.22862C22.1537 9.9239 24.6203 13.273 26.3365 16.985C23.4769 13.1064 19.674 9.95731 15.3417 7.87724C11.0927 5.83742 6.55622 5.09663 1.88818 5.08013C1.27749 5.07772 0.664609 5.06806 0.0541173 5.0908C-0.152229 5.09824 0.308771 5.10408 0.204405 5.10247C0.501401 5.1073 0.798397 5.10831 1.09539 5.10931C0.5509 5.1073 1.24429 5.123 1.31009 5.12581C1.51783 5.13406 1.72557 5.14674 1.9331 5.15922C2.39649 5.1876 2.85848 5.23308 3.31988 5.28419C4.19835 5.382 5.07105 5.52991 5.93659 5.70842C7.57225 6.04571 9.17333 6.54339 10.7259 7.16121C13.7734 8.37351 16.5931 10.1412 19.069 12.3048C23.5118 16.1869 26.6742 21.4251 28.1536 27.1517H28.1423C28.5379 28.6403 28.7578 30.2788 28.7578 32.0001C28.7578 33.7211 28.5381 35.3597 28.1423 36.8483H28.1455C27.4986 39.3733 26.5267 41.8158 25.2459 44.0935C22.0034 49.8592 16.7982 54.3743 10.7259 56.8388C9.17671 57.4677 7.56927 57.943 5.93659 58.2916C5.13883 58.4622 4.33273 58.5898 3.52364 58.6917C3.11473 58.743 2.70422 58.7812 2.29352 58.815C2.03548 58.8364 1.77685 58.8508 1.51842 58.8645C1.42499 58.8696 0.551298 58.8927 1.09559 58.8909C0.798596 58.8917 0.501599 58.8927 0.204603 58.8975C0.308969 58.8959 -0.152031 58.9018 0.0543161 58.9094C0.664609 58.9317 1.27749 58.9221 1.88838 58.9199C5.35214 58.9074 8.71491 58.5369 12.0242 57.4552C15.151 56.4329 18.0822 54.837 20.6912 52.8211C22.8558 51.1484 24.7634 49.1657 26.3685 46.9599C26.0252 47.7109 25.6514 48.4487 25.2461 49.1695C22.0036 54.9354 16.7984 59.4506 10.7261 61.915C9.17691 62.5437 7.56947 63.019 5.93679 63.3678C5.13903 63.5382 4.33293 63.6658 3.52384 63.7677C3.11493 63.8192 2.70442 63.8572 2.29371 63.8912C2.03568 63.9126 1.77705 63.9268 1.51862 63.9407C1.42519 63.9456 0.551496 63.9689 1.09579 63.9669C0.798794 63.9679 0.501798 63.9689 0.204802 63.9737C0.309168 63.9719 -0.151832 63.978 0.0545149 63.9854C0.664808 64.0079 1.27769 63.9983 1.88858 63.9961C5.35234 63.9836 8.71511 63.6131 12.0244 62.5312C15.1512 61.5091 18.0824 59.913 20.6914 57.8971C25.925 53.8531 29.6581 48.0035 31.2391 41.5448C31.9981 38.4428 32.4947 35.3541 32.4963 32.177C32.4987 26.8003 31.4087 21.2504 29.0617 16.4114C26.1737 10.459 21.2486 5.63758 15.3415 2.80143Z" fill="url(#paint0_linear_257_654)"/>
<path d="M41.9351 31.8291L40.0901 29.9765C39.4731 29.3603 38.8632 28.7378 38.2403 28.128L36.379 26.2917L34.5003 24.473L34.3313 24.6441C34.4019 24.8828 34.4881 25.1051 34.5736 25.3289C34.6629 25.5485 34.7529 25.7674 34.8505 25.9787C34.9442 26.1945 35.0481 26.3987 35.1483 26.6078C35.2501 26.8147 35.3592 27.0141 35.4648 27.2176C35.5731 27.4178 35.6868 27.6131 35.7976 27.8107C35.9093 28.0077 36.0302 28.1955 36.1455 28.3884C36.2604 28.5827 36.385 28.7662 36.5069 28.9531C36.6295 29.1389 36.7492 29.3277 36.8796 29.5062L37.2629 30.0479C37.3937 30.226 37.5289 30.3989 37.6617 30.5746C37.926 30.9272 38.2014 31.2683 38.4837 31.6027C38.5962 31.7376 38.7113 31.8702 38.8266 32.0024C38.7125 32.1338 38.5976 32.265 38.4864 32.3999C38.3451 32.5667 38.2065 32.7366 38.0698 32.908C37.93 33.0769 37.7996 33.255 37.6656 33.429C37.5328 33.6049 37.3963 33.7766 37.2673 33.9563L36.8836 34.4979C36.7532 34.6756 36.6347 34.8659 36.5112 35.0509C36.3886 35.2368 36.2647 35.4218 36.1498 35.6154C36.0341 35.8086 35.9127 35.9955 35.8016 36.1931C35.6908 36.391 35.5763 36.5852 35.4684 36.7856C35.3628 36.9891 35.2529 37.1877 35.1515 37.395C35.0509 37.6033 34.9465 37.8079 34.8529 38.0231C34.7551 38.2342 34.6647 38.4527 34.5754 38.6723C34.4891 38.8953 34.403 39.1178 34.3315 39.3557L34.5005 39.5268L36.3788 37.7079L38.2401 35.8714C38.863 35.2616 39.4736 34.6395 40.0899 34.0231L41.9353 32.1705L42.1053 31.9998L41.9351 31.8291Z" fill="url(#paint1_linear_257_654)"/>
</g>
<path d="M67.5368 43.7895C66.3467 43.7895 65.2238 43.621 64.1684 43.2842C63.113 42.9474 62.1474 42.4421 61.2716 41.7684C60.3958 41.0947 59.621 40.2638 58.9474 39.2758L60.7663 37.2547C61.8217 38.7593 62.8996 39.8147 64 40.421C65.1228 41.0274 66.3803 41.3305 67.7726 41.3305C68.7831 41.3305 69.7038 41.1621 70.5347 40.8253C71.3656 40.4884 72.0168 40.0168 72.4884 39.4105C72.96 38.8042 73.1958 38.1081 73.1958 37.3221C73.1958 36.8056 73.106 36.3453 72.9263 35.941C72.7691 35.5368 72.5221 35.1775 72.1853 34.8631C71.8484 34.5488 71.433 34.2681 70.9389 34.021C70.4449 33.774 69.8723 33.5495 69.221 33.3474C68.5923 33.1453 67.8849 32.9431 67.0989 32.741C65.9537 32.4716 64.9431 32.1572 64.0674 31.7979C63.214 31.4161 62.4842 30.9558 61.8779 30.4168C61.294 29.8779 60.8449 29.2603 60.5305 28.5642C60.2386 27.8456 60.0926 27.0035 60.0926 26.0379C60.0926 25.1172 60.2835 24.2638 60.6653 23.4779C61.0695 22.6919 61.6196 22.0182 62.3158 21.4568C63.0119 20.873 63.8316 20.4238 64.7747 20.1095C65.7179 19.7951 66.7284 19.6379 67.8063 19.6379C69.0189 19.6379 70.0968 19.8063 71.04 20.1431C72.0056 20.4575 72.8589 20.9291 73.6 21.5579C74.341 22.1867 74.981 22.9389 75.52 23.8147L73.6674 25.6337C73.1958 24.8926 72.6568 24.2526 72.0505 23.7137C71.4667 23.1747 70.8154 22.7705 70.0968 22.501C69.4007 22.2091 68.626 22.0631 67.7726 22.0631C66.7846 22.0631 65.9088 22.2316 65.1453 22.5684C64.4042 22.9053 63.8203 23.3768 63.3937 23.9831C62.967 24.567 62.7537 25.2407 62.7537 26.0042C62.7537 26.5656 62.8547 27.0709 63.0568 27.52C63.2589 27.9467 63.5733 28.3284 64 28.6653C64.4491 28.9796 65.0217 29.2716 65.7179 29.541C66.4365 29.7881 67.2898 30.0238 68.2779 30.2484C69.4456 30.5179 70.4898 30.8435 71.4105 31.2253C72.3537 31.607 73.1509 32.0674 73.8021 32.6063C74.4758 33.1228 74.981 33.7291 75.3179 34.4253C75.6772 35.1214 75.8568 35.9186 75.8568 36.8168C75.8568 38.2091 75.5088 39.433 74.8126 40.4884C74.1165 41.5214 73.1396 42.3298 71.8821 42.9137C70.647 43.4975 69.1986 43.7895 67.5368 43.7895Z" fill="#080809"/>
<path d="M82.405 37.7937L82.3039 34.8631L91.4997 25.8695H94.9018L82.405 37.7937ZM80.1481 43.4526V18.5263H82.6745V43.4526H80.1481ZM92.2071 43.4526L84.7966 34.8631L86.5818 33.1116L95.5081 43.4526H92.2071Z" fill="#080809"/>
<path d="M101.237 51.2L104.639 42.9137L104.875 45.3053L96.05 25.8695H98.9131L104.943 39.3431C105.122 39.7024 105.302 40.1291 105.482 40.6231C105.661 41.0947 105.83 41.5663 105.987 42.0379L105.044 41.9368C105.201 41.5551 105.347 41.1621 105.482 40.7579C105.639 40.3537 105.785 39.9607 105.919 39.5789L111.208 25.8695H114.105L106.997 43.4526L103.966 51.2H101.237Z" fill="#080809"/>
<path d="M123.842 43.7895C122.18 43.7895 120.698 43.3965 119.395 42.6105C118.093 41.8021 117.06 40.713 116.296 39.3431C115.555 37.9509 115.185 36.3789 115.185 34.6274C115.185 32.8758 115.555 31.3151 116.296 29.9453C117.06 28.553 118.093 27.4638 119.395 26.6779C120.698 25.8919 122.191 25.4989 123.875 25.4989C125.38 25.4989 126.75 25.8021 127.985 26.4084C129.22 26.9923 130.208 27.8119 130.949 28.8674L129.467 30.6863C129.04 30.1249 128.524 29.6309 127.917 29.2042C127.333 28.7775 126.693 28.4519 125.997 28.2274C125.324 27.9803 124.65 27.8568 123.976 27.8568C122.786 27.8568 121.719 28.16 120.776 28.7663C119.833 29.3502 119.081 30.1474 118.519 31.1579C117.981 32.1684 117.711 33.3249 117.711 34.6274C117.711 35.9298 117.981 37.0975 118.519 38.1305C119.081 39.141 119.833 39.9382 120.776 40.5221C121.719 41.106 122.775 41.3979 123.943 41.3979C124.616 41.3979 125.279 41.2968 125.93 41.0947C126.581 40.8702 127.199 40.5558 127.783 40.1516C128.366 39.7474 128.905 39.2421 129.399 38.6358L130.882 40.4547C130.118 41.4653 129.096 42.2737 127.816 42.88C126.536 43.4863 125.211 43.7895 123.842 43.7895Z" fill="#080809"/>
<path d="M141.033 43.7895C139.506 43.7895 138.125 43.3965 136.89 42.6105C135.655 41.8021 134.678 40.713 133.959 39.3431C133.241 37.9509 132.881 36.3789 132.881 34.6274C132.881 32.8533 133.252 31.2814 133.993 29.9116C134.734 28.5417 135.722 27.4638 136.957 26.6779C138.215 25.8919 139.618 25.4989 141.168 25.4989C142.088 25.4989 142.942 25.6337 143.728 25.9031C144.514 26.1726 145.21 26.5544 145.816 27.0484C146.445 27.52 146.961 28.0814 147.366 28.7326C147.792 29.3614 148.084 30.0463 148.241 30.7874L147.5 30.4168L147.601 25.8695H150.128V43.4526H147.568V39.141L148.241 38.7031C148.084 39.3768 147.781 40.0281 147.332 40.6568C146.883 41.2631 146.333 41.8021 145.681 42.2737C145.053 42.7452 144.334 43.1158 143.526 43.3852C142.74 43.6547 141.909 43.7895 141.033 43.7895ZM141.606 41.3642C142.773 41.3642 143.817 41.0835 144.738 40.5221C145.659 39.9382 146.377 39.141 146.894 38.1305C147.433 37.0975 147.702 35.9298 147.702 34.6274C147.702 33.3249 147.433 32.1684 146.894 31.1579C146.377 30.1474 145.659 29.3502 144.738 28.7663C143.817 28.1824 142.773 27.8905 141.606 27.8905C140.415 27.8905 139.36 28.1824 138.439 28.7663C137.541 29.3502 136.822 30.1474 136.283 31.1579C135.767 32.1684 135.509 33.3249 135.509 34.6274C135.509 35.9074 135.767 37.0638 136.283 38.0968C136.8 39.1074 137.518 39.9045 138.439 40.4884C139.36 41.0723 140.415 41.3642 141.606 41.3642Z" fill="#080809"/>
<path d="M157.475 43.4526V21.2547H160.001V43.4526H157.475ZM153.5 28.2947V25.8695H164.447V28.2947H153.5Z" fill="#080809"/>
<path d="M174.796 43.7895C173.134 43.7895 171.652 43.3965 170.349 42.6105C169.047 41.8021 168.014 40.713 167.25 39.3431C166.509 37.9509 166.139 36.3789 166.139 34.6274C166.139 32.8758 166.509 31.3151 167.25 29.9453C168.014 28.553 169.047 27.4638 170.349 26.6779C171.652 25.8919 173.145 25.4989 174.829 25.4989C176.334 25.4989 177.704 25.8021 178.939 26.4084C180.174 26.9923 181.162 27.8119 181.903 28.8674L180.421 30.6863C179.994 30.1249 179.478 29.6309 178.871 29.2042C178.287 28.7775 177.647 28.4519 176.951 28.2274C176.278 27.9803 175.604 27.8568 174.93 27.8568C173.74 27.8568 172.673 28.16 171.73 28.7663C170.787 29.3502 170.035 30.1474 169.473 31.1579C168.934 32.1684 168.665 33.3249 168.665 34.6274C168.665 35.9298 168.934 37.0975 169.473 38.1305C170.035 39.141 170.787 39.9382 171.73 40.5221C172.673 41.106 173.729 41.3979 174.897 41.3979C175.57 41.3979 176.233 41.2968 176.884 41.0947C177.535 40.8702 178.153 40.5558 178.737 40.1516C179.32 39.7474 179.859 39.2421 180.353 38.6358L181.836 40.4547C181.072 41.4653 180.05 42.2737 178.77 42.88C177.49 43.4863 176.165 43.7895 174.796 43.7895Z" fill="#080809"/>
<path d="M185.115 43.4526V18.5263H187.642V29.7095L187.136 30.2147C187.383 29.294 187.844 28.4856 188.517 27.7895C189.191 27.0709 189.977 26.5095 190.875 26.1053C191.796 25.701 192.728 25.4989 193.671 25.4989C195.018 25.4989 196.141 25.7572 197.039 26.2737C197.938 26.7902 198.6 27.5874 199.027 28.6653C199.476 29.7431 199.701 31.113 199.701 32.7747V43.4526H197.141V32.9095C197.141 31.7417 196.983 30.7874 196.669 30.0463C196.377 29.2828 195.917 28.7214 195.288 28.3621C194.659 28.0028 193.873 27.8344 192.93 27.8568C192.189 27.8568 191.493 27.9916 190.842 28.261C190.19 28.5081 189.629 28.8561 189.157 29.3053C188.686 29.7544 188.315 30.2709 188.046 30.8547C187.776 31.4386 187.642 32.0674 187.642 32.741V43.4526H186.395C186.238 43.4526 186.058 43.4526 185.856 43.4526C185.654 43.4526 185.407 43.4526 185.115 43.4526Z" fill="#080809"/>
<path d="M212.271 43.7895C210.519 43.7895 208.958 43.4077 207.588 42.6442C206.241 41.8807 205.186 40.814 204.422 39.4442C203.659 38.0744 203.277 36.5024 203.277 34.7284C203.277 33.3586 203.49 32.1235 203.917 31.0231C204.343 29.9003 204.939 28.9235 205.702 28.0926C206.488 27.2617 207.42 26.6217 208.498 26.1726C209.576 25.701 210.743 25.4653 212.001 25.4653C213.191 25.4653 214.269 25.6786 215.235 26.1053C216.223 26.5319 217.065 27.127 217.761 27.8905C218.48 28.6316 219.019 29.5186 219.378 30.5516C219.737 31.5846 219.894 32.7186 219.849 33.9537L219.816 35.1326H205.163L204.793 33.0105H217.896L217.289 33.5831V32.7747C217.245 31.9663 217.009 31.1916 216.582 30.4505C216.155 29.687 215.549 29.0695 214.763 28.5979C214 28.1263 213.079 27.8905 212.001 27.8905C210.743 27.8905 209.654 28.1488 208.734 28.6653C207.813 29.1593 207.106 29.9003 206.612 30.8884C206.118 31.8765 205.871 33.1003 205.871 34.56C205.871 35.9523 206.14 37.1649 206.679 38.1979C207.218 39.2084 207.981 39.9944 208.969 40.5558C209.98 41.1172 211.193 41.3979 212.607 41.3979C213.438 41.3979 214.258 41.2631 215.066 40.9937C215.897 40.7017 216.807 40.1403 217.795 39.3095L219.108 41.1284C218.592 41.6449 217.974 42.1053 217.256 42.5095C216.537 42.8912 215.751 43.2056 214.898 43.4526C214.045 43.6772 213.169 43.7895 212.271 43.7895Z" fill="#080809"/>
<path d="M223.438 43.4526V25.8695H225.964L226.031 30.5516L225.762 29.9116C226.009 29.1256 226.402 28.3958 226.941 27.7221C227.502 27.0484 228.165 26.5095 228.928 26.1053C229.692 25.701 230.534 25.4989 231.454 25.4989C231.836 25.4989 232.196 25.5326 232.532 25.6C232.869 25.6449 233.15 25.7123 233.374 25.8021L232.667 28.6316C232.375 28.4968 232.072 28.407 231.758 28.3621C231.466 28.2947 231.185 28.261 230.916 28.261C230.152 28.261 229.467 28.3958 228.861 28.6653C228.254 28.9347 227.738 29.3165 227.311 29.8105C226.885 30.2821 226.559 30.8323 226.334 31.461C226.11 32.0898 225.998 32.7635 225.998 33.4821V43.4526H223.438Z" fill="#080809"/>
<defs>
<linearGradient id="paint0_linear_257_654" x1="5.50365" y1="0.000121867" x2="33.6912" y2="62.2729" gradientUnits="userSpaceOnUse">
<stop stop-color="#1B5BFF"/>
<stop offset="0.755208" stop-color="#45E9FF"/>
</linearGradient>
<linearGradient id="paint1_linear_257_654" x1="35.6478" y1="24.473" x2="42.2038" y2="39.2039" gradientUnits="userSpaceOnUse">
<stop stop-color="#1B5BFF"/>
<stop offset="0.755208" stop-color="#45E9FF"/>
</linearGradient>
<clipPath id="clip0_257_654">
<rect width="42.1053" height="64" fill="white"/>
</clipPath>
</defs>
</svg>
